<?xml version="1.0" encoding="UTF-8"?> <svg xmlns="http://www.w3.org/2000/svg" width="340" height="73.7"><g fill="#353535"><path d="M103.234 47.159h-5.711V35.238l-6.245 11.921h-3.64l-6.282-11.994v11.994h-5.711V23.245h5.783l8.029 14.811 8.031-14.811h5.745v23.914zM124.757 47.159h-5.71v-1.717c-1.358 1.428-3.249 2.25-5.497 2.25-4.176 0-6.959-2.961-6.959-7.458V29.239h5.674v9.78c0 2.106 1.249 3.534 3.07 3.534 2.247 0 3.712-1.533 3.712-4.998v-8.316h5.71v17.92zM132.609 41.339c.25 1.535 1.643 2.106 3.176 2.106 1.499 0 2.32-.643 2.32-1.428 0-.606-.463-1.069-1.785-1.319l-3.641-.715c-3.319-.607-5.209-2.392-5.209-5.209 0-3.677 3.176-6.068 7.707-6.068 4.462 0 7.425 2.033 8.138 5.139l-5.21 1.035c-.178-1.106-1.249-2.106-2.998-2.106-1.534 0-2.034.751-2.034 1.394 0 .498.214.998 1.356 1.249l4.211.857c3.391.711 4.961 2.746 4.961 5.388 0 3.963-3.426 6.031-8.137 6.031-4.213 0-7.815-1.533-8.422-5.211l5.567-1.143zM151.562 41.055c0 .928.68 1.57 1.713 1.57.5 0 1.25-.215 2.072-.499l.89 4.459c-1.035.502-2.142 1.107-4.213 1.107-3.709 0-6.172-2.497-6.172-6.21V19.675h5.71v21.38zM164.127 23.959c0 1.82-1.392 3.178-3.32 3.178-1.93 0-3.283-1.357-3.283-3.178 0-1.752 1.354-3.247 3.283-3.247 1.928 0 3.32 1.495 3.32 3.247zm-6.176 23.2v-17.92h5.71v17.92h-5.71zM197.604 35.951v11.208h-5.677v-9.993c0-2.035-1.32-3.321-2.998-3.321-2.106 0-3.498 1.535-3.498 4.535v8.779h-5.711v-9.993c0-2.035-1.318-3.321-3.032-3.321-2.068 0-3.425 1.535-3.425 4.535v8.779h-5.71v-17.92h5.71v1.645c1.213-1.355 2.963-2.178 5.28-2.178 2.499 0 4.64 1.071 5.854 3.032 1.426-1.855 3.568-3.032 6.352-3.032 3.819 0 6.855 2.891 6.855 7.245zM232.65 38.199c-1.107 5.995-5.924 9.493-12.063 9.493-7.103 0-12.705-5.461-12.705-12.49 0-6.994 5.603-12.491 12.705-12.491 5.891 0 10.887 3.496 12.029 9.171l-5.782 1.355c-.75-3.46-3.178-5.137-6.247-5.137-3.783 0-6.817 3.03-6.817 7.102 0 4.068 3.034 7.139 6.817 7.139 3.034 0 5.461-1.715 6.283-5.284l5.78 1.142zM252.994 39.663h-13.135c.466 2.142 1.928 3.46 3.856 3.46 1.32 0 2.855-.32 3.819-2.068l5.066 1.035c-1.533 3.784-4.782 5.603-8.886 5.603-5.175 0-9.459-3.82-9.459-9.493 0-5.641 4.284-9.493 9.495-9.493 5.067 0 9.137 3.64 9.242 9.493v1.463zm-13.027-3.499h7.389c-.535-1.925-1.963-2.817-3.604-2.817-1.606 0-3.249.998-3.785 2.817zM273.59 36.164v10.995h-5.675v-9.78c0-2.106-1.251-3.534-3.07-3.534-2.248 0-3.713 1.535-3.713 4.997v8.317h-5.709v-17.92h5.709v1.717c1.357-1.428 3.249-2.25 5.497-2.25 4.177 0 6.961 2.961 6.961 7.458zM290.223 46.372c-1.393.751-2.857 1.32-4.891 1.32-4.464 0-7.14-2.425-7.14-7.136v-6.783h-3.245v-4.534h3.245v-5.994h5.71v5.994h5.284v4.534h-5.284v6.21c0 1.857.893 2.605 2.394 2.605.784 0 1.855-.286 2.604-.714l1.323 4.498zM305.031 29.134l-.249 5.713h-1.035c-3.996 0-6.174 2.068-6.174 6.705v5.607h-5.71v-17.92h5.71v3.429c1.284-2.143 3.247-3.676 6.174-3.676.5 0 .858.034 1.284.142zM322.771 35.808V47.16h-5.493v-1.322c-1.253 1.071-2.965 1.855-5.356 1.855-3.998 0-6.674-2.317-6.674-5.852 0-3.5 2.676-5.784 7.459-5.784h4.571V35.7c0-1.497-1.037-2.496-2.537-2.496-1.712 0-2.712.679-2.998 2.249l-5.388-1.108c.784-3.461 3.926-5.639 8.209-5.639 5.03 0 8.207 2.534 8.207 7.102zm-5.493 4.283v-.393h-3.929c-1.428 0-2.319.749-2.319 1.854 0 1.144.999 1.858 2.499 1.858 1.961 0 3.749-1.32 3.749-3.319zM331.195 41.055c0 .928.677 1.57 1.713 1.57.499 0 1.248-.215 2.07-.499l.892 4.459c-1.033.502-2.141 1.107-4.211 1.107-3.713 0-6.174-2.497-6.174-6.21V19.675h5.71v21.38z"></path></g><circle fill="#FFF" cx="30.585" cy="28.774" r="23.82"></circle><path fill="#FBB21E" d="M58.883 28.91l-4.755-2.736c.106.912.167 1.84.167 2.781 0 13.131-10.643 23.775-23.773 23.775-13.129 0-23.773-10.645-23.773-23.775 0-9.775 5.903-18.172 14.337-21.822l-4.499-2.594c-2.081-1.197-4.052-1.791-5.82-1.84-4.632-.137-7.855 3.461-7.85 9.746l.021 21.279.015 20.946.006 6.592c.002 2.43.484 4.455 1.342 6.02 2.215 4.031 6.921 4.998 12.338 1.865l11.352-6.568 3.041-1.758 3.553-2.057 21.778-12.598c2.759-1.592 5.495-2.926 7.149-5.768 2.271-3.902.731-8.396-4.629-11.488z"></path><path fill="#353535" d="M50.02 24.674c.033-5.484-3.184-8.203-8.678-8.203-2.459 0-4.856.506-6.244 1.557-1.372-1.09-3.773-1.637-6.234-1.637-5.488 0-8.251 2.729-8.251 8.213V35.91h5.41V23.627c.031-2.002 1.118-2.982 3.263-2.982 2.144 0 3.23.98 3.351 2.982V35.91h5.362V23.693c.047-1.992 1.137-2.975 3.277-2.975 2.145 0 3.235.982 3.332 2.975v12.281s-.244 1.389-1.488 2.686c-3.463 3.607-7.877 5.811-13.291 5.811-4.435 0-8.91-1.514-12.621-4.041l10.811 8.109c.275.008.554.012.832.012 9.266 0 17.283-4.822 21.17-12.576"></path><path fill="#FBB21E" d="M48.133 39.133c-5.963 8.035-17.531 8.922-25.568 2.957-8.033-5.963-9.715-17.311-3.751-25.348 5.143-6.932 14.292-9.129 21.868-5.775-8.746-4.973-20.029-2.75-26.179 5.533-6.646 8.959-4.774 21.609 4.185 28.254 8.955 6.65 21.827 5.568 28.474-3.387a20.055 20.055 0 0 0 2.862-5.404 18.186 18.186 0 0 1-1.891 3.17z"></path></svg> 